<?xml version="1.0" encoding="UTF-8" standalone="no"?>
<!DOCTYPE svg PUBLIC "-//W3C//DTD SVG 1.1//EN" "http://www.w3.org/Graphics/SVG/1.1/DTD/svg11.dtd">
<svg width="100%" height="100%" viewBox="0 0 140 140" version="1.1" xmlns="http://www.w3.org/2000/svg" xmlns:xlink="http://www.w3.org/1999/xlink" xml:space="preserve" xmlns:serif="http://www.serif.com/" style="fill-rule:evenodd;clip-rule:evenodd;stroke-linejoin:round;stroke-miterlimit:1.41421;">
    <g id="DefaultCoverTemplate">
        <rect x="0" y="0" width="140" height="140" style="fill:#ddd;"/>
        <path d="M110.961,130l-2.621,0c-0.937,0 -1.686,-0.749 -1.811,-1.748c-0.125,-2.122 -0.686,-5.368 -1.123,-8.489c-0.5,-3.184 -0.999,-6.43 -1.186,-8.614c-0.063,-0.812 0.249,-1.561 0.811,-2.185c0.624,-0.624 1.436,-0.999 2.31,-0.999l4.619,0c0.874,0 1.685,0.375 2.31,0.999c0.561,0.624 0.874,1.373 0.811,2.185c-0.187,2.122 -0.686,5.368 -1.123,8.551c-0.5,3.184 -0.999,6.43 -1.186,8.615c-0.125,0.936 -0.874,1.685 -1.811,1.685Zm-3.62,-20.787c-0.5,0 -0.999,0.188 -1.373,0.625c-0.313,0.374 -0.5,0.811 -0.5,1.248c0.125,2.122 0.687,5.368 1.124,8.49c0.499,3.183 0.999,6.429 1.186,8.614c0.062,0.374 0.249,0.624 0.562,0.624l2.621,0c0.375,0 0.562,-0.375 0.562,-0.624c0.187,-2.185 0.687,-5.493 1.186,-8.677c0.499,-3.121 0.999,-6.305 1.124,-8.427c0,-0.437 -0.125,-0.874 -0.5,-1.248c-0.374,-0.375 -0.874,-0.625 -1.373,-0.625l-4.619,0Zm13.233,7.866c-0.187,0 -0.374,-0.125 -0.499,-0.25c-0.187,-0.312 -0.125,-0.687 0.187,-0.874c5.306,-3.496 8.49,-9.363 8.49,-15.793c0,-10.487 -8.49,-18.976 -18.977,-18.976c-10.487,0 -19.038,8.489 -19.038,18.976c0,6.367 3.183,12.297 8.489,15.793c0.312,0.187 0.374,0.562 0.187,0.874c-0.187,0.312 -0.562,0.374 -0.874,0.187c-5.618,-3.745 -8.988,-9.987 -8.988,-16.791c0,-11.174 9.051,-20.225 20.224,-20.225c11.174,0 20.225,9.051 20.225,20.225c0,6.804 -3.371,13.108 -8.989,16.791c-0.187,0 -0.312,0.063 -0.437,0.063Zm-1.123,-9.052c-0.125,0 -0.25,-0.062 -0.375,-0.124c-0.25,-0.188 -0.374,-0.562 -0.125,-0.874c1.436,-2.06 2.248,-4.495 2.248,-6.867c0,-6.367 -5.182,-11.548 -11.549,-11.548c-6.367,0 -11.548,5.181 -11.548,11.548c0,2.497 0.749,4.869 2.248,6.867c0.187,0.249 0.124,0.686 -0.125,0.874c-0.25,0.187 -0.687,0.124 -0.874,-0.125c-1.623,-2.247 -2.497,-4.869 -2.497,-7.616c0,-7.053 5.743,-12.796 12.796,-12.796c7.054,0 12.797,5.743 12.797,12.796c0,2.684 -0.874,5.369 -2.497,7.616c-0.125,0.187 -0.312,0.249 -0.499,0.249Zm-9.801,-3.058c-2.559,0 -4.681,-2.123 -4.681,-4.682c0,-2.559 2.122,-4.682 4.681,-4.682c2.56,0 4.682,2.123 4.682,4.682c0,2.559 -2.122,4.682 -4.682,4.682Zm0,-8.115c-1.872,0 -3.433,1.56 -3.433,3.433c0,1.873 1.561,3.433 3.433,3.433c1.873,0 3.434,-1.56 3.434,-3.433c0,-1.873 -1.561,-3.433 -3.434,-3.433Z" style="fill-rule:nonzero;"/>
    </g>
</svg>
