<svg width="140" height="140" viewBox="0 0 140 140" xmlns="http://www.w3.org/2000/svg" fill-rule="evenodd" clip-rule="evenodd" stroke-linejoin="round" stroke-miterlimit="1.414"><path fill="#ddd" d="M0 0h140v140H0z"/><path d="M110.961 130h-2.621c-.937 0-1.686-.749-1.811-1.748-.125-2.122-.686-5.368-1.123-8.489-.5-3.184-.999-6.43-1.186-8.614-.063-.812.249-1.561.811-2.185.624-.624 1.436-.999 2.31-.999h4.619c.874 0 1.685.375 2.31.999.561.624.874 1.373.811 2.185-.187 2.122-.686 5.368-1.123 8.551-.5 3.184-.999 6.43-1.186 8.615-.125.936-.874 1.685-1.811 1.685zm-3.62-20.787c-.5 0-.999.188-1.373.625-.313.374-.5.811-.5 1.248.125 2.122.687 5.368 1.124 8.49.499 3.183.999 6.429 1.186 8.614.062.374.249.624.562.624h2.621c.375 0 .562-.375.562-.624.187-2.185.687-5.493 1.186-8.677.499-3.121.999-6.305 1.124-8.427 0-.437-.125-.874-.5-1.248-.374-.375-.874-.625-1.373-.625h-4.619zm13.233 7.866c-.187 0-.374-.125-.499-.25-.187-.312-.125-.687.187-.874 5.306-3.496 8.49-9.363 8.49-15.793 0-10.487-8.49-18.976-18.977-18.976s-19.038 8.489-19.038 18.976a18.894 18.894 0 0 0 8.489 15.793c.312.187.374.562.187.874-.187.312-.562.374-.874.187a20.1 20.1 0 0 1-8.988-16.791C89.551 89.051 98.602 80 109.775 80 120.949 80 130 89.051 130 100.225c0 6.804-3.371 13.108-8.989 16.791-.187 0-.312.063-.437.063zm-1.123-9.052c-.125 0-.25-.062-.375-.124-.25-.188-.374-.562-.125-.874 1.436-2.06 2.248-4.495 2.248-6.867 0-6.367-5.182-11.548-11.549-11.548-6.367 0-11.548 5.181-11.548 11.548 0 2.497.749 4.869 2.248 6.867.187.249.124.686-.125.874-.25.187-.687.124-.874-.125-1.623-2.247-2.497-4.869-2.497-7.616 0-7.053 5.743-12.796 12.796-12.796 7.054 0 12.797 5.743 12.797 12.796 0 2.684-.874 5.369-2.497 7.616a.568.568 0 0 1-.499.249zm-9.801-3.058c-2.559 0-4.681-2.123-4.681-4.682s2.122-4.682 4.681-4.682c2.56 0 4.682 2.123 4.682 4.682s-2.122 4.682-4.682 4.682zm0-8.115c-1.872 0-3.433 1.56-3.433 3.433 0 1.873 1.561 3.433 3.433 3.433 1.873 0 3.434-1.56 3.434-3.433 0-1.873-1.561-3.433-3.434-3.433z" fill-rule="nonzero"/></svg>
