<svg xmlns="http://www.w3.org/2000/svg" xmlns:xlink="http://www.w3.org/1999/xlink" version="1.1" x="0px" y="0px" viewBox="0 0 100 125" style="enable-background:new 0 0 100 100;" xml:space="preserve"><g><path d="M53.8,90.3h-4.2c-1.5,0-2.7-1.2-2.9-2.8c-0.2-3.4-1.1-8.6-1.8-13.6c-0.8-5.1-1.6-10.3-1.9-13.8c-0.1-1.3,0.4-2.5,1.3-3.5   c1-1,2.3-1.6,3.7-1.6h7.4c1.4,0,2.7,0.6,3.7,1.6c0.9,1,1.4,2.2,1.3,3.5c-0.3,3.4-1.1,8.6-1.8,13.7c-0.8,5.1-1.6,10.3-1.9,13.8   c0,0,0,0,0,0C56.5,89.1,55.3,90.3,53.8,90.3z M48,57c-0.8,0-1.6,0.3-2.2,1c-0.5,0.6-0.8,1.3-0.8,2c0.2,3.4,1.1,8.6,1.8,13.6   c0.8,5.1,1.6,10.3,1.9,13.8c0.1,0.6,0.4,1,0.9,1h4.2c0.6,0,0.9-0.6,0.9-1c0.3-3.5,1.1-8.8,1.9-13.9c0.8-5,1.6-10.1,1.8-13.5   c0-0.7-0.2-1.4-0.8-2c-0.6-0.6-1.4-1-2.2-1H48z M55.7,87.4L55.7,87.4L55.7,87.4z M69.2,69.6c-0.3,0-0.6-0.2-0.8-0.4   c-0.3-0.5-0.2-1.1,0.3-1.4c8.5-5.6,13.6-15,13.6-25.3c0-16.8-13.6-30.4-30.4-30.4S21.4,25.7,21.4,42.5c0,10.2,5.1,19.7,13.6,25.3   c0.5,0.3,0.6,0.9,0.3,1.4c-0.3,0.5-0.9,0.6-1.4,0.3c-9-6-14.4-16-14.4-26.9c0-17.9,14.5-32.4,32.4-32.4s32.4,14.5,32.4,32.4   c0,10.9-5.4,21-14.4,26.9C69.6,69.5,69.4,69.6,69.2,69.6z M67.4,55.1c-0.2,0-0.4-0.1-0.6-0.2c-0.4-0.3-0.6-0.9-0.2-1.4   c2.3-3.3,3.6-7.2,3.6-11c0-10.2-8.3-18.5-18.5-18.5s-18.5,8.3-18.5,18.5c0,4,1.2,7.8,3.6,11c0.3,0.4,0.2,1.1-0.2,1.4   s-1.1,0.2-1.4-0.2c-2.6-3.6-4-7.8-4-12.2c0-11.3,9.2-20.5,20.5-20.5s20.5,9.2,20.5,20.5c0,4.3-1.4,8.6-4,12.2   C68,55,67.7,55.1,67.4,55.1z M51.7,50.2c-4.1,0-7.5-3.4-7.5-7.5s3.4-7.5,7.5-7.5s7.5,3.4,7.5,7.5S55.8,50.2,51.7,50.2z M51.7,37.2   c-3,0-5.5,2.5-5.5,5.5s2.5,5.5,5.5,5.5c3,0,5.5-2.5,5.5-5.5S54.7,37.2,51.7,37.2z"/></g><text x="0" y="115" fill="#000000" font-size="5px" font-weight="bold" font-family="'Helvetica Neue', Helvetica, Arial-Unicode, Arial, Sans-serif">Created by Vicons Design</text><text x="0" y="120" fill="#000000" font-size="5px" font-weight="bold" font-family="'Helvetica Neue', Helvetica, Arial-Unicode, Arial, Sans-serif">from the Noun Project</text></svg>